<?xml version="1.0" encoding="utf-8"?>
<!-- Generator: Adobe Illustrator 25.0.0, SVG Export Plug-In . SVG Version: 6.00 Build 0)  -->
<svg version="1.1" id="Layer_1" xmlns="http://www.w3.org/2000/svg" xmlns:xlink="http://www.w3.org/1999/xlink" x="0px" y="0px"
	 viewBox="0 0 1140 220" style="enable-background:new 0 0 1140 220;" xml:space="preserve">
<style type="text/css">
	.st0{fill-rule:evenodd;clip-rule:evenodd;fill:#2795FF;}
	.st1{filter:url(#Adobe_OpacityMaskFilter);}
	.st2{fill-rule:evenodd;clip-rule:evenodd;fill:#FFFFFF;}
	.st3{opacity:7.000000e-02;mask:url(#mask-2_1_);fill-rule:evenodd;clip-rule:evenodd;fill:#FFFFFF;enable-background:new    ;}
	.st4{filter:url(#Adobe_OpacityMaskFilter_1_);}
	.st5{opacity:7.000000e-02;mask:url(#mask-2_2_);fill:#FFFFFF;enable-background:new    ;}
</style>
<desc>Created with sketchtool.</desc>
<g id="Page-1">
	<g id="LTD-sales-page-tweaked" transform="translate(-390.000000, -14371.000000)">
		<g id="Pricing" transform="translate(0.000000, 13471.000000)">
			<g id="money-back" transform="translate(390.000000, 900.000000)">
				<g id="_x33_0-background">
					<g id="Rectangle">
						<path id="path-1_1_" class="st0" d="M20,0h1100c13.1,0,20,0,20,0c0,0,0,6.9,0,20c0,60,0,120,0,180c0,16.9,0,20,0,20
							s-6.9,0-20,0c-366.7,0-733.3,0-1100,0c-6.7,0-26.7,0-20,0l0,0c0,0,0-6.9,0-20C0,140,0,80,0,20C0,6.9,0,0,0,0C0,0,6.9,0,20,0z"
							/>
						<path class="st0" d="M21.2-5.3"/>
					</g>
					<defs>
						<filter id="Adobe_OpacityMaskFilter" filterUnits="userSpaceOnUse" x="1" y="0" width="226.4" height="175">
							<feColorMatrix  type="matrix" values="1 0 0 0 0  0 1 0 0 0  0 0 1 0 0  0 0 0 1 0"/>
						</filter>
					</defs>
					<mask maskUnits="userSpaceOnUse" x="1" y="0" width="226.4" height="175" id="mask-2_1_">
						<g class="st1">
							<path id="path-1_2_" class="st2" d="M20,0h1100c11,0,20,9,20,20v180c0,11-9,20-20,20H20c-11,0-20-9-20-20V20C0,9,9,0,20,0z"
								/>
						</g>
					</mask>
					<path id="Oval" class="st3" d="M1,175c108.7,0,200.2-74.5,226.4-175L1,0.5V175z"/>
					<defs>
						<filter id="Adobe_OpacityMaskFilter_1_" filterUnits="userSpaceOnUse" x="743" y="16" width="397" height="204">
							<feColorMatrix  type="matrix" values="1 0 0 0 0  0 1 0 0 0  0 0 1 0 0  0 0 0 1 0"/>
						</filter>
					</defs>
					<mask maskUnits="userSpaceOnUse" x="743" y="16" width="397" height="204" id="mask-2_2_">
						<g class="st4">
							<path id="path-1_3_" class="st2" d="M20,0h1100c11,0,20,9,20,20v180c0,11-9,20-20,20H20c-11,0-20-9-20-20V20C0,9,9,0,20,0z"
								/>
						</g>
					</mask>
					<path id="Oval-Copy" class="st5" d="M1140,41.9c-36.5-16.6-77.2-25.9-120-25.9c-130.2,0-240.3,85.9-277,204h397V41.9z
						 M897.2,220c27.1-38.6,72-64,122.8-64c49.1,0,92.6,23.6,120,60v4H897.2z"/>
				</g>
			</g>
		</g>
	</g>
</g>
</svg>
