<svg width="2100" height="1100" xmlns="http://www.w3.org/2000/svg">
 <defs>
  <linearGradient id="a" x1="0" x2="NaN" y1="0" y2="NaN">
   <stop offset="0" stop-color="#1c74d4"/>
   <stop offset="1" stop-color="#1c74d4"/>
  </linearGradient>
  <pattern patternUnits="userSpaceOnUse" id="b" width="540" height="450" x="0" y="0" viewBox="0 0 1080 900">
   <g fill-opacity="0.02" id="svg_1">
    <polygon fill="#444" points="90 150 0 300 180 300" id="svg_2"/>
    <polygon points="90 150 180 0 0 0" id="svg_3"/>
    <polygon fill="#AAA" points="270 150 360 0 180 0" id="svg_4"/>
    <polygon fill="#DDD" points="450 150 360 300 540 300" id="svg_5"/>
    <polygon fill="#999" points="450 150 540 0 360 0" id="svg_6"/>
    <polygon points="630 150 540 300 720 300" id="svg_7"/>
    <polygon fill="#DDD" points="630 150 720 0 540 0" id="svg_8"/>
    <polygon fill="#444" points="810 150 720 300 900 300" id="svg_9"/>
    <polygon fill="#FFF" points="810 150 900 0 720 0" id="svg_10"/>
    <polygon fill="#DDD" points="990 150 900 300 1080 300" id="svg_11"/>
    <polygon fill="#444" points="990 150 1080 0 900 0" id="svg_12"/>
    <polygon fill="#DDD" points="90 450 0 600 180 600" id="svg_13"/>
    <polygon points="90 450 180 300 0 300" id="svg_14"/>
    <polygon fill="#666" points="270 450 180 600 360 600" id="svg_15"/>
    <polygon fill="#AAA" points="270 450 360 300 180 300" id="svg_16"/>
    <polygon fill="#DDD" points="450 450 360 600 540 600" id="svg_17"/>
    <polygon fill="#999" points="450 450 540 300 360 300" id="svg_18"/>
    <polygon fill="#999" points="630 450 540 600 720 600" id="svg_19"/>
    <polygon fill="#FFF" points="630 450 720 300 540 300" id="svg_20"/>
    <polygon points="810 450 720 600 900 600" id="svg_21"/>
    <polygon fill="#DDD" points="810 450 900 300 720 300" id="svg_22"/>
    <polygon fill="#AAA" points="990 450 900 600 1080 600" id="svg_23"/>
    <polygon fill="#444" points="990 450 1080 300 900 300" id="svg_24"/>
    <polygon fill="#222" points="90 750 0 900 180 900" id="svg_25"/>
    <polygon points="270 750 180 900 360 900" id="svg_26"/>
    <polygon fill="#DDD" points="270 750 360 600 180 600" id="svg_27"/>
    <polygon points="450 750 540 600 360 600" id="svg_28"/>
    <polygon points="630 750 540 900 720 900" id="svg_29"/>
    <polygon fill="#444" points="630 750 720 600 540 600" id="svg_30"/>
    <polygon fill="#AAA" points="810 750 720 900 900 900" id="svg_31"/>
    <polygon fill="#666" points="810 750 900 600 720 600" id="svg_32"/>
    <polygon fill="#999" points="990 750 900 900 1080 900" id="svg_33"/>
    <polygon fill="#999" points="180 0 90 150 270 150" id="svg_34"/>
    <polygon fill="#444" points="360 0 270 150 450 150" id="svg_35"/>
    <polygon fill="#FFF" points="540 0 450 150 630 150" id="svg_36"/>
    <polygon points="900 0 810 150 990 150" id="svg_37"/>
    <polygon fill="#222" points="0 300 -90 450 90 450" id="svg_38"/>
    <polygon fill="#FFF" points="0 300 90 150 -90 150" id="svg_39"/>
    <polygon fill="#FFF" points="180 300 90 450 270 450" id="svg_40"/>
    <polygon fill="#666" points="180 300 270 150 90 150" id="svg_41"/>
    <polygon fill="#222" points="360 300 270 450 450 450" id="svg_42"/>
    <polygon fill="#FFF" points="360 300 450 150 270 150" id="svg_43"/>
    <polygon fill="#444" points="540 300 450 450 630 450" id="svg_44"/>
    <polygon fill="#222" points="540 300 630 150 450 150" id="svg_45"/>
    <polygon fill="#AAA" points="720 300 630 450 810 450" id="svg_46"/>
    <polygon fill="#666" points="720 300 810 150 630 150" id="svg_47"/>
    <polygon fill="#FFF" points="900 300 810 450 990 450" id="svg_48"/>
    <polygon fill="#999" points="900 300 990 150 810 150" id="svg_49"/>
    <polygon points="0 600 -90 750 90 750" id="svg_50"/>
    <polygon fill="#666" points="0 600 90 450 -90 450" id="svg_51"/>
    <polygon fill="#AAA" points="180 600 90 750 270 750" id="svg_52"/>
    <polygon fill="#444" points="180 600 270 450 90 450" id="svg_53"/>
    <polygon fill="#444" points="360 600 270 750 450 750" id="svg_54"/>
    <polygon fill="#999" points="360 600 450 450 270 450" id="svg_55"/>
    <polygon fill="#666" points="540 600 630 450 450 450" id="svg_56"/>
    <polygon fill="#222" points="720 600 630 750 810 750" id="svg_57"/>
    <polygon fill="#FFF" points="900 600 810 750 990 750" id="svg_58"/>
    <polygon fill="#222" points="900 600 990 450 810 450" id="svg_59"/>
    <polygon fill="#DDD" points="0 900 90 750 -90 750" id="svg_60"/>
    <polygon fill="#444" points="180 900 270 750 90 750" id="svg_61"/>
    <polygon fill="#FFF" points="360 900 450 750 270 750" id="svg_62"/>
    <polygon fill="#AAA" points="540 900 630 750 450 750" id="svg_63"/>
    <polygon fill="#FFF" points="720 900 810 750 630 750" id="svg_64"/>
    <polygon fill="#222" points="900 900 990 750 810 750" id="svg_65"/>
    <polygon fill="#222" points="1080 300 990 450 1170 450" id="svg_66"/>
    <polygon fill="#FFF" points="1080 300 1170 150 990 150" id="svg_67"/>
    <polygon points="1080 600 990 750 1170 750" id="svg_68"/>
    <polygon fill="#666" points="1080 600 1170 450 990 450" id="svg_69"/>
    <polygon fill="#DDD" points="1080 900 1170 750 990 750" id="svg_70"/>
   </g>
  </pattern>
 </defs>
 <g>
  <title>background</title>
  <rect x="-1" y="-1" width="2100" height="1100" id="canvas_background" fill="none"/>
 </g>
 <g>
  <title>Layer 1</title>
  <rect x="0" y="0" fill="url(#a)" width="100%" height="100%" id="svg_71"/>
  <rect x="0" y="0" fill="url(#b)" width="100%" height="100%" id="svg_72"/>
 </g>
</svg>