<svg width="419" height="352" xmlns="http://www.w3.org/2000/svg" class="landingPageHeader__image">

 <g>
  <title>background</title>
  <rect fill="none" id="canvas_background" height="602" width="802" y="-1" x="-1"/>
 </g>
 <g>
  <title>Layer 1</title>
  <g id="svg_1" transform="matrix(-1,0,0,1,419,0) " fill-rule="evenodd" fill="none">
   <path id="svg_2" d="m150,138l-39,0l0,46.96l70,0l0,81.54l-50,0" stroke="#33D6AD"/>
   <path id="svg_3" d="m176.5,254.5l0,-9l-49.5,0l0,-26.5l42.955,0l0,-93l-24.955,0" stroke="#FF7B4F"/>
   <path id="svg_4" d="m409.117,84l-258.234,0c-5.457,0 -9.883,3.277 -9.883,7.32l0,73.36c0,4.042 4.426,7.32 9.883,7.32l258.234,0c5.459,0 9.883,-3.278 9.883,-7.32l0,-73.36c0,-4.043 -4.424,-7.32 -9.883,-7.32" fill="#FF7B4F"/>
   <path id="svg_5" d="m124.415,50.917l-9.431,7.385l-2.654,32.057l0,6.921a1.844,1.844 0 0 0 1.843,1.836l4.2,0l0,4.192c0,0.613 0.499,1.11 1.114,1.11c0.624,0 1.125,-0.51 1.113,-1.13l-0.135,-6.98l0.776,-0.08a1.233,1.233 0 0 0 1.087,-1.44l-0.237,-1.356a2.414,2.414 0 0 0 -0.806,-1.726l-1.326,-1.182l-1.587,-2.478l3.576,-22.309l9.178,-6.333l-6.711,-8.487m86.569,-2.877l33.853,29.629l8.79,4.263l5.389,0c0.687,0 1.244,0.555 1.244,1.24c0,0.684 -0.557,1.238 -1.244,1.238l-15.37,0a3.794,3.794 0 0 1 -3.235,-1.807l-0.714,-1.167l-26.867,-18.837l-10.294,-5.957l8.448,-8.602" fill="#F6C9B6"/>
   <path id="svg_6" d="m174.227,25.252l14.545,5.165a18.215,18.215 0 0 1 5.187,2.864l17.766,14.005l-10.062,10.245s-10.299,-6.008 -10.725,-5.06c-1.103,2.463 -1.853,21.915 -1.853,21.915l1.328,9.983l-42.965,0l0.885,-10.425l-4.16,-19.718l-12.57,5.995l-7.996,-10.325l17.913,-16.921a15.245,15.245 0 0 1 4.24,-2.83l10.932,-4.893l17.535,0" fill="#474959"/>
   <path id="svg_7" d="m165.578,40.538c3.939,0 7.132,-3.181 7.132,-7.106l0,-6.527l-14.262,0l0,6.527c0,3.925 3.192,7.106 7.13,7.106" fill="#F6C9B6"/>
   <path id="svg_8" d="m154.272,11.448c0.087,-0.778 0.11,-2.35 0.266,-3.119c0.317,-1.552 1.442,-3.276 2.55,-4.41c0.922,-0.943 0.562,-0.853 1.648,-1.604c1.904,-1.32 5.177,-1.844 7.488,-1.705c0.982,0.061 1.953,0.31 2.89,0.591c0.217,0.066 2.617,1.546 2.177,1.766c1.042,-0.523 2.33,-0.015 3.198,0.76c1.401,1.251 2.109,3.08 2.765,4.838l0.943,2.514c0.283,0.756 0.566,1.598 0.267,2.349c-0.131,0.33 -0.365,0.61 -0.51,0.932c-0.378,0.841 -0.109,1.811 -0.044,2.73c0.094,1.326 -0.307,2.666 -1.055,3.762c-0.707,1.036 -1.842,1.37 -2.596,2.223l0.387,-0.122c-3.17,1.97 -7.183,1.756 -10.91,1.474l-5.292,-0.4c-0.947,-0.07 -1.992,-0.188 -2.63,-0.89c-0.65,-0.718 -0.648,-1.79 -0.961,-2.701c-0.416,-1.213 -1.412,-2.18 -1.744,-3.416c-0.506,-1.878 0.95,-3.64 1.163,-5.572" fill="#D56B22"/>
   <path id="svg_9" d="m165.482,33.35c4.855,0 8.789,-3.921 8.789,-8.758l0,-12.229l-17.579,0l0,12.229c0,4.837 3.936,8.758 8.79,8.758" fill="#F6C9B6"/>
   <path id="svg_10" d="m154.519,12.769c0.832,-1.809 2.589,-3.066 4.474,-3.716c1.887,-0.649 3.912,-0.76 5.908,-0.805c1.016,-0.024 2.042,-0.03 3.041,0.158c1.212,0.23 2.349,0.739 3.472,1.243l2.383,1.072c0.745,0.334 1.522,0.694 2.017,1.341c0.883,1.157 0.58,2.806 0.083,4.172l-0.308,0.243c-2.363,-0.313 -4.107,-2.264 -5.758,-3.976l-0.324,-0.226c-0.166,-0.036 -0.33,0.05 -0.477,0.132c-2.511,1.378 -5.435,1.753 -8.285,2.059c-2.137,0.229 -4.575,0.336 -6.127,-1.145l-0.164,-0.241l0.065,-0.311" fill="#E0593B"/>
   <path id="svg_11" d="m174.305,25.91c0.324,-1.77 0.343,-3.596 0.043,-5.37c-0.672,0.937 -0.93,2.1 -1.458,3.123c-0.53,1.022 -1.527,1.975 -2.674,1.844c-1.362,-0.154 -2.1,-1.676 -3.305,-2.328c-0.731,-0.396 -1.614,-0.447 -2.43,-0.272c-0.812,0.176 -1.564,0.564 -2.268,1.005c-0.9,0.566 -1.895,1.26 -2.93,1.01c-0.673,-0.162 -1.193,-0.71 -1.524,-1.319c-0.33,-0.608 -0.504,-1.284 -0.745,-1.933l-0.274,-0.305c-0.948,1.909 -0.616,4.87 0.068,6.807c0.767,2.172 2.352,4.081 4.428,5.092c1.603,0.781 3.432,1.014 5.21,0.903c1.254,-0.078 2.52,-0.33 3.61,-0.956c1.599,-0.919 2.664,-2.554 3.36,-4.258c0.4,-0.981 0.698,-2.002 0.89,-3.043" fill="#D56B22"/>
   <text id="svg_12" transform="matrix(-1,0,0,1,550,0) " font-size="13" font-family="Arial" fill="#FEF4F1">
    <tspan id="svg_13" y="108" x="146">https://thuonghieunaodo.com/sanpham/</tspan>
    <tspan id="svg_14" y="124.2" x="146">khuyenmai.html?utm_</tspan>
    <tspan id="svg_15" y="140.4" x="146">campaign=salescuoituan&amp;utm_medium=</tspan>
    <tspan id="svg_16" y="156.6" x="146">lastslide&amp;gdpr=yes</tspan>
   </text>
   <g id="svg_17">
    <path id="svg_18" d="m273.402,157.018s3.47,-3.173 3.47,-8.005l10.534,0s0.205,6.649 2.725,8.005l-16.729,0m-16.818,12.302l-21.751,6.306a5.27,5.27 0 0 1 -2.52,0.103l-23.001,-4.667l-1.778,-4.449l-0.276,0.094a2.378,2.378 0 0 0 -1.62,2.254l0,1.309l-1.444,0.664l-4.59,1.076l-1.164,0.758l-4.282,0l1.541,1.412c0.23,0.21 0.517,0.346 0.824,0.392l10.296,1.545l4.723,0.846l18.58,7.622a6.22,6.22 0 0 0 3.87,0.282l23.703,-5.903l-1.111,-9.644m48.901,0l21.75,6.306c0.82,0.237 1.685,0.273 2.52,0.103l23,-4.667l1.78,-4.449l0.276,0.094a2.38,2.38 0 0 1 1.62,2.254l0,1.309l1.442,0.664l4.593,1.076l1.162,0.758l4.283,0l-1.541,1.412c-0.23,0.21 -0.517,0.346 -0.824,0.392l-10.296,1.545l-4.724,0.846l-18.58,7.622a6.217,6.217 0 0 1 -3.87,0.282l-23.704,-5.903l1.113,-9.644" fill="#F6C9B6"/>
    <path id="svg_19" d="m282.368,134.002c-0.35,-1.27 -1.153,-2.484 -2.367,-3.002l1.616,-1.327c-0.707,0.029 -1.418,0.09 -2.095,0.297c-0.68,0.21 -1.3,0.56 -1.933,0.874c-0.953,0.47 -1.463,0.545 -1.94,1.554c-0.503,1.06 -1.008,2.123 -1.51,3.185c-0.222,0.467 -0.444,0.936 -0.594,1.432c-0.217,0.727 -0.272,1.49 -0.326,2.248l-0.133,1.89c-0.039,0.562 -0.078,1.128 -0.018,1.687c0.074,0.708 0.304,1.39 0.533,2.064c0.41,1.203 0.814,2.93 1.883,3.708c1.133,0.826 2.363,1.546 3.809,1.553c0.316,0.002 0.647,-0.034 0.907,-0.21c0.258,-0.177 0.411,-0.468 0.544,-0.752c1.631,-3.475 1.777,-7.435 1.896,-11.27c0.04,-1.32 0.078,-2.66 -0.272,-3.93m16.322,193.767l7.312,0l0,-6.12l-7.313,0l0.001,6.12z" fill="#F6C9B6"/>
    <path id="svg_20" d="m304.515,325.864l-5.948,0l-1.117,3.348l0,1.61c0,0.89 0.723,1.611 1.611,1.611l6.197,0l6.568,-2.479l0,-1.133c0,-1.857 -0.89,-3.6 -2.396,-4.688l-3.428,-2.483l0,3.966l-1.487,0.248" fill="#D56B22"/>
    <path id="svg_21" d="m299.061,330.202l6.197,0l6.442,-2.431c0.065,0.345 0.126,0.693 0.126,1.05l0,1.133l-6.568,2.48l-6.197,0c-0.888,0 -1.61,-0.723 -1.61,-1.611l0,-1.611l0.078,-0.235c0.176,0.699 0.78,1.225 1.532,1.225" fill="#474959"/>
    <path id="svg_22" d="m260.638,327.77l7.31,0l0,-6.12l-7.31,0l0,6.12z" fill="#F6C9B6"/>
    <path id="svg_23" d="m263.805,224.54s-1.56,10.64 -2.777,20.92c-0.263,2.23 -0.39,4.471 -0.39,6.716l0,71.087l7.31,0s5.65,-24.764 6.792,-41.273c0.302,-4.38 1.058,-8.71 2.011,-12.996l7.68,-34.578l0,-8.46l-20.626,-1.416" fill="#474959"/>
    <path id="svg_24" d="m302.89,227.257s1.642,9.18 2.867,19.55c0.155,1.308 0.236,2.626 0.236,3.943l0,72.513l-7.304,0.129s-6.254,-23.78 -7.025,-41.926c-0.123,-2.885 -0.66,-5.731 -1.263,-8.555l-8.201,-27.925l0,-19.03l20.69,1.301" fill="#474959"/>
    <path id="svg_25" d="m262.124,325.864l5.949,0l1.116,3.348l0,1.61c0,0.89 -0.722,1.611 -1.61,1.611l-6.197,0l-6.569,-2.479l0,-1.133c0,-1.857 0.89,-3.6 2.394,-4.688l3.43,-2.483l0,3.966l1.487,0.248" fill="#D56B22"/>
    <path id="svg_26" d="m267.578,330.202l-6.196,0l-6.443,-2.431c-0.064,0.345 -0.126,0.693 -0.126,1.05l0,1.133l6.569,2.48l6.196,0c0.889,0 1.61,-0.723 1.61,-1.611l0,-1.611l-0.077,-0.235c-0.177,0.699 -0.78,1.225 -1.533,1.225" fill="#474959"/>
    <path id="svg_27" d="m290.131,156.32l8.188,2.545c2.992,0.93 18.45,12.147 18.45,12.147l-4.59,11.33l-9.903,-3.59l2.096,54.636c-6.363,-5.376 -27.252,8.062 -43.734,-2.1c0,0 7.559,-34.937 2.479,-51.544l-11.556,2.401l-5.379,-11.481l7.47,-4.678c1.279,-0.8 2.54,-1.64 3.69,-2.615a25.508,25.508 0 0 1 9.132,-4.963l6.928,-2.089l16.73,0" fill="#33D6AD"/>
    <path id="svg_28" d="m292.065,140.128c-0.174,-1.149 0.132,-2.31 0.229,-3.468c0.143,-1.677 -0.138,-3.26 -0.907,-4.77c-0.609,-1.19 -1.319,-2.355 -2.326,-3.233c-1.95,-1.7 -4.72,-2.075 -7.308,-2.044c-0.786,0.01 -1.594,0.052 -2.322,0.353c-0.573,0.238 -1.081,0.625 -1.672,0.81c-0.393,0.125 -0.809,0.153 -1.21,0.249c-0.545,0.13 -1.055,0.384 -1.544,0.657c-0.512,0.287 -1.023,0.614 -1.361,1.093c-0.911,1.29 -0.677,3.89 -0.089,5.267c0.223,0.525 0.544,1.004 0.758,1.531c0.785,1.925 0.066,4.161 0.591,6.173c0.366,1.392 1.297,2.566 1.818,3.907c0.33,0.848 0.5,1.774 1.015,2.525c1.036,1.517 2.86,1.697 4.504,2.052c2.034,0.44 3.877,1.1 6,1.139c3.686,0.066 2.887,-3.3 4.036,-5.686c0.262,-0.547 0.642,-1.04 0.814,-1.62c0.487,-1.637 -0.773,-3.248 -1.026,-4.935" fill="#474959"/>
   </g>
   <g id="svg_29">
    <path id="svg_30" d="m73.788,344l5.493,2.442l8.78,2.247a2.482,2.482 0 0 1 1.939,2.42l-25.625,-0.108l0.628,-4.492l3.661,-2.509l5.124,0" fill="#F6C9B6"/>
    <path id="svg_31" d="m76.319,347.98l2.961,-1.98l8.602,1.454c1.132,0.254 2.117,2.054 2.117,3.214l-25.625,-0.108l0.628,-4.492l2.092,1.83l3.654,-0.03c1.687,0.318 4.06,0.935 5.57,0.111" fill="#33D6AD"/>
    <path id="svg_32" d="m66.275,345.605l7.725,-1.954l0,-10.651l-7.725,0l0,12.605" fill="#F6C9B6"/>
    <path id="svg_33" d="m11.495,313.689s48.952,-17.692 54.654,-15.501c0,0 7.3,-0.007 8.851,11.614l-0.281,25.082l-9.595,0l-2.53,-19.148a2.038,2.038 0 0 0 -2.933,-1.154l-29.585,16.478l-18.581,-17.37" fill="#474959"/>
    <path id="svg_34" d="m37.576,319l29.595,18.23a5.948,5.948 0 0 1 2.829,5.065l0,1.75a6.955,6.955 0 0 1 -6.956,6.952l-40.214,-1.987l0,-11.71s-12.327,-4.799 -11.714,-15.059l26.46,-3.241" fill="#474959"/>
    <path id="svg_35" d="m20.839,336l-20.222,14.738l22.383,-1.986l0,-11.71l-2.161,-1.042" fill="#F6C9B6"/>
    <path id="svg_36" d="m20.839,336l2.161,1.042l0,5.019a4.507,4.507 0 0 0 -4.234,0.168l-9.95,7.584a4.54,4.54 0 0 1 -2.747,0.925l-5.452,0l20.222,-14.738" fill="#33D6AD"/>
    <path id="svg_37" d="m40,251.175s-4.778,9.149 -1.098,14.586l-13.022,-1.205l5.205,-16.556l8.915,3.175" fill="#F6C9B6"/>
    <path id="svg_38" d="m30.13,246.207c0.172,-1.054 0.645,-2.03 1.113,-2.991c1.42,-2.918 2.94,-5.96 5.581,-7.847c1.161,-0.83 2.504,-1.408 3.56,-2.369l0.766,0.468l1.413,0.244c1.395,0.252 2.667,1.216 3.187,2.533c0.52,1.318 0.219,2.946 -0.81,3.92c-0.624,0.592 -1.444,0.916 -2.195,1.334a9.56,9.56 0 0 0 -3.795,3.89c-0.307,0.584 -0.554,1.204 -0.94,1.74c-1.182,1.65 -3.364,2.172 -5.355,2.573c-0.375,0.076 -0.771,0.15 -1.136,0.032c-0.278,-0.09 -0.508,-0.284 -0.698,-0.505c-0.697,-0.81 -0.863,-1.969 -0.691,-3.023" fill="#474959"/>
    <path id="svg_39" d="m31.085,242.64c1.09,-1.912 2.18,-3.83 3.493,-5.597c0.39,-0.524 0.812,-1.048 1.381,-1.371c0.554,-0.314 1.202,-0.412 1.836,-0.485a29.65,29.65 0 0 1 4.718,-0.154l0.243,0.339c0.44,1.125 0.76,2.286 1,3.467c0.254,1.252 2.115,4.22 2.244,5.501c0.018,0.189 -1.658,0.378 -1.64,0.568c0.064,0.676 0.118,1.354 0.172,2.028c0.103,1.261 0.203,0.848 -0.06,2.086c-0.262,1.237 -0.945,2.445 -2.06,3.043c-1.258,0.675 -2.799,0.461 -4.171,0.073a18.856,18.856 0 0 1 -5.433,-2.524c-1.398,-0.948 -2.77,-2.296 -2.788,-3.984c-0.012,-1.07 0.534,-2.059 1.065,-2.99" fill="#F6C9B6"/>
    <path id="svg_40" d="m20.595,268.424c2.716,8.38 -12.47,53.451 -12.47,53.451c6.486,8.574 22.131,-3.45 32.214,-1.254c0,0 -0.105,-18.927 3.714,-27.395l5.137,-8.371a5.48,5.48 0 0 0 -0.244,-6.098l-9.705,-13.293l-13.898,-5.273a2.927,2.927 0 0 0 -3.283,0.857c-1.715,2.05 -2.288,4.834 -1.465,7.376" fill="#FFFFFE"/>
    <path id="svg_41" d="m18.572,267.038c-0.242,-6.227 1.992,-12.31 2.155,-18.539c0.127,-4.837 -0.861,-10.204 2.008,-14.1c2.37,-3.213 6.695,-4.32 10.688,-4.394c1.951,-0.036 3.94,0.127 5.751,0.855c1.105,0.446 2.171,1.19 3.015,2.025c0.468,0.463 0.982,0.886 0.756,1.506c-0.203,0.556 -1.17,1.053 -1.678,1.248c-0.722,0.276 -1.507,0.332 -2.249,0.545c-1.764,0.507 -1.883,1.805 -2.119,3.406a47.353,47.353 0 0 0 -0.488,5.668c-0.02,0.74 -0.025,1.5 -0.16,2.223c-0.068,0.366 -0.17,0.724 -0.324,1.066c-0.565,1.257 -1.736,2.111 -2.8,2.985c-0.86,0.709 -1.946,1.658 -2.199,2.801c-0.295,1.329 0.22,2.767 -0.14,4.155c-0.582,2.237 -2.585,3.755 -4.048,5.546c-2.176,2.665 -3.217,6.112 -3.527,9.54c-0.31,3.428 -3.13,7.676 -3.688,10.297c-2.417,-5.382 -0.722,-10.94 -0.953,-16.833" fill="#474959"/>
    <path id="svg_42" d="m25.54,275.685a5.403,5.403 0 0 1 6.815,-2.24l14.465,4.983c1.357,2.97 -5.419,7.407 -4.863,12.12l-13.729,-7.121c-3.08,-1.213 -4.354,-4.883 -2.688,-7.742" fill="#FFFFFE"/>
    <path id="svg_43" d="m61.903,294.977a3.449,3.449 0 0 1 -3.375,0.481l-28.196,-11.105c-2.87,-1.13 -4.058,-4.55 -2.506,-7.213a5.033,5.033 0 0 1 6.35,-2.086l26.335,11.399l21.18,-12.704l1.903,-2.674l4.324,-2.914l0.632,-0.161l0,2.003l-0.34,0.102l-0.438,1.214l4.714,-0.826l6.364,-1.166c0.253,0.21 0.195,1.049 0,1.313l-5.296,1.65l0.049,0.583l6.22,-1.603c0.268,0.209 0.202,1.088 0,1.36l-6.244,1.895l0.147,0.724l5.658,-1.356c0.181,0.143 0.137,0.737 0,0.924l-5.417,1.723l0.024,0.463l4.885,-0.853c0.749,0.53 0.078,1.122 -0.026,1.24l-9.11,1.29a5.46,5.46 0 0 1 -2.947,-0.4l-2.12,-0.923l-22.77,17.62z" fill="#F6C9B6"/>
   </g>
   <rect id="svg_44" rx="5" fill="#33D6AD" y="243" x="88.5" height="30" width="154"/>
   <text id="svg_45" transform="matrix(-1,0,0,1,332,0) " font-size="14" font-family="Arial" fill="#43301A">
    <tspan id="svg_46" y="263" x="99.774">tencuaban.co/giatot</tspan>
   </text>
  </g>
 </g>
</svg>